<svg xmlns="http://www.w3.org/2000/svg" xmlns:xlink="http://www.w3.org/1999/xlink" viewBox="0 0 100 100"><defs><style>.cls-1{fill:#f65a55;}.cls-2{fill:#ffd4d4;}.cls-3{fill:#fff;}.cls-4{isolation:isolate;}.cls-5{clip-path:url(#clip-path);}.cls-6{fill:#5e11a1;}.cls-7{fill:#53ea80;}.cls-8{fill:#ffa6a7;}.cls-9{fill:#ff6d6d;}.cls-10{fill:#d95757;}.cls-11{clip-path:url(#clip-path-2);}.cls-12,.cls-13{opacity:0.3;mix-blend-mode:darken;}.cls-12{fill:url(#radial-gradient);}.cls-13{fill:url(#radial-gradient-2);}.cls-14{fill:#002e51;}.cls-15{clip-path:url(#clip-path-3);}.cls-16{clip-path:url(#clip-path-4);}.cls-17{fill:#ff658b;}.cls-18{fill:#47c26a;}</style><clipPath id="clip-path"><circle class="cls-1" cx="53.31" cy="50" r="39.93"/></clipPath><clipPath id="clip-path-2"><path class="cls-2" d="M53.92,24.77c-24.26,0-23,20.18-21.17,26.37s1.12,7.8.87,10.15-.25,4.36,3.34,7.18c3.31,2.61,10.22,5.91,16.84,5.91a30,30,0,0,0,16.83-5.91c3.59-2.82,3.59-4.82,3.34-7.18s-1-4,.87-10.15S77.69,24.77,53.92,24.77Z"/></clipPath><radialGradient id="radial-gradient" cx="69.15" cy="59.93" r="11.88" gradientTransform="translate(62.63 -31.34) rotate(45)" gradientUnits="userSpaceOnUse"><stop offset="0" stop-color="#ff6d6d"/><stop offset="1" stop-color="#fff"/></radialGradient><radialGradient id="radial-gradient-2" cx="36.96" cy="59.93" r="11.88" gradientTransform="translate(90.17 13.81) rotate(80.75)" xlink:href="#radial-gradient"/><clipPath id="clip-path-3"><path class="cls-3" d="M46.94,57.4s.19-5-1.63-6.69-5.64-1.44-7.36.48c-1,3.15.09,6.31.86,6.78S44.45,60.17,46.94,57.4Z"/></clipPath><clipPath id="clip-path-4"><path class="cls-3" d="M59.82,57.4s-.2-5,1.62-6.69,5.64-1.44,7.36.48c1,3.15-.09,6.31-.86,6.78S62.3,60.17,59.82,57.4Z"/></clipPath></defs><title>Artboard 2icon 3</title><g class="cls-4"><g id="Layer_1" data-name="Layer 1"><circle class="cls-1" cx="53.31" cy="50" r="39.93"/><g class="cls-5"><path class="cls-6" d="M78.44,72s-1.24.36-3.19.88a5.26,5.26,0,0,0-2.76-3.11,21.19,21.19,0,0,1,0,3.82c-5.5,1.35-13.47,3-17.95,2.37-7.3-1-15.6-4-23.89-2.73a125.2,125.2,0,0,0-.25-18C29.54,46.81,20.75,19,53.43,19c29.46,0,24.14,25.87,23,34.91S78.44,72,78.44,72Z"/><path class="cls-6" d="M42,20.94s-3.71.25-5.7-2.48c4-1.36,6.94,1.74,6.94,1.74s1.85-7.55,6.56-8.67c.12,3.1-3,7.55-3,7.55s2.6-3.21,5.57-3.09C51.57,19.7,45.13,21.93,42,20.94Z"/><path class="cls-7" d="M34.78,93.94s4-4.79,5-7.76,3.72-6.85,5.86-6.85,3.14,1.16,4.38,1.57S56.9,82,60.11,80.08s4.3-2.4,5.78-2.56,0,16.42,0,16.42Z"/><path class="cls-8" d="M49.55,72.48a20,20,0,0,1,.25,8.42,9.33,9.33,0,0,0,10.31-.82,21,21,0,0,1-.49-8.42Z"/><path class="cls-2" d="M60.3,93.94a49.09,49.09,0,0,0,1.64-7.43c.4-3.46.4-10.15,5.6-10s5.87,5,4.71,17.41Z"/><path class="cls-8" d="M72.29,55.89c.41-4.71,6.52-8.25,8.66-7.59A5,5,0,0,1,84.67,53c0,3.63-4.13,8.67-6.85,9S71.88,60.59,72.29,55.89Z"/><path class="cls-9" d="M83.73,54.44c-1,3.69-4.14,5.49-5.49,5.49a1.85,1.85,0,0,1-1.61-1.42,1.49,1.49,0,0,1,.08-1.28,2.92,2.92,0,0,0,.81-1.89c0-.72-1.89-1.44-1-2.88l.12-.17A7,7,0,0,1,81.57,50C82.92,50.12,84.29,52.35,83.73,54.44Z"/><path class="cls-10" d="M76.63,58.51a1.49,1.49,0,0,1,.08-1.28,2.92,2.92,0,0,0,.81-1.89c0-.72-1.89-1.44-1-2.88l.12-.17c1.23-.42,3-.69,3.73,1C81.31,55.7,78.86,58.58,76.63,58.51Z"/><path class="cls-8" d="M35.52,55.89c-.41-4.71-6.52-8.25-8.66-7.59A5,5,0,0,0,23.15,53c0,3.63,4.12,8.67,6.85,9S35.94,60.59,35.52,55.89Z"/><path class="cls-9" d="M24.08,54.44c1,3.69,4.14,5.49,5.49,5.49a1.84,1.84,0,0,0,1.61-1.42,1.49,1.49,0,0,0-.08-1.28,2.92,2.92,0,0,1-.81-1.89c0-.72,1.89-1.44,1-2.88a.88.88,0,0,0-.12-.17A7,7,0,0,0,26.24,50C24.89,50.12,23.52,52.35,24.08,54.44Z"/><path class="cls-10" d="M31.18,58.51a1.49,1.49,0,0,0-.08-1.28,2.92,2.92,0,0,1-.81-1.89c0-.72,1.89-1.44,1-2.88a.88.88,0,0,0-.12-.17c-1.23-.42-3-.69-3.72,1C26.5,55.7,29,58.58,31.18,58.51Z"/><path class="cls-2" d="M53.92,24.77c-24.26,0-23,20.18-21.17,26.37s1.12,7.8.87,10.15-.25,4.36,3.34,7.18c3.31,2.61,10.22,5.91,16.84,5.91a30,30,0,0,0,16.83-5.91c3.59-2.82,3.59-4.82,3.34-7.18s-1-4,.87-10.15S77.69,24.77,53.92,24.77Z"/><g class="cls-11"><circle class="cls-12" cx="69.15" cy="59.93" r="11.88" transform="translate(-22.12 66.45) rotate(-45)"/><circle class="cls-13" cx="36.96" cy="59.93" r="11.88" transform="matrix(0.16, -0.99, 0.99, 0.16, -28.13, 86.78)"/></g><path class="cls-8" d="M51.24,60.1a4.71,4.71,0,0,1,1-1.05,2,2,0,0,1,2.37,0,3.71,3.71,0,0,1,.88,1A8,8,0,0,1,51.24,60.1Z"/><path class="cls-14" d="M45.31,50.55a6.09,6.09,0,0,0-4.88-2.33c-1.53,0-3.34.72-3.82,1.62s-.77,6.54,1.72,7.88,5.74.36,5.74.36Z"/><path class="cls-3" d="M46.94,57.4s.19-5-1.63-6.69-5.64-1.44-7.36.48c-1,3.15.09,6.31.86,6.78S44.45,60.17,46.94,57.4Z"/><g class="cls-15"><path class="cls-7" d="M49.23,55.87A4.88,4.88,0,1,1,44.35,51,4.88,4.88,0,0,1,49.23,55.87Z"/><path class="cls-14" d="M47.84,55.87a3.49,3.49,0,1,1-3.49-3.48A3.48,3.48,0,0,1,47.84,55.87Z"/><path class="cls-3" d="M42.33,53.11c.41.41.58.91.37,1.11s-.7,0-1.11-.37-.57-.9-.37-1.11S41.92,52.7,42.33,53.11Z"/></g><path class="cls-14" d="M61.44,50.55a6.09,6.09,0,0,1,4.88-2.33c1.53,0,3.34.72,3.82,1.62s.77,6.54-1.72,7.88-5.74.36-5.74.36Z"/><path class="cls-3" d="M59.82,57.4s-.2-5,1.62-6.69,5.64-1.44,7.36.48c1,3.15-.09,6.31-.86,6.78S62.3,60.17,59.82,57.4Z"/><g class="cls-16"><path class="cls-7" d="M57.52,55.87A4.88,4.88,0,1,0,62.4,51,4.88,4.88,0,0,0,57.52,55.87Z"/><path class="cls-14" d="M58.91,55.87a3.49,3.49,0,1,0,3.49-3.48A3.48,3.48,0,0,0,58.91,55.87Z"/><path class="cls-3" d="M64.42,53.11c-.41.41-.58.91-.37,1.11s.7,0,1.11-.37.57-.9.37-1.11S64.83,52.7,64.42,53.11Z"/></g><path class="cls-9" d="M60.11,67.09a19,19,0,0,1-6.93,1.08A23.15,23.15,0,0,1,47,67.48c-3.84-1.06-4.24-3-3.84-3.77.56-1,2.24-.47,4.39.14a17.91,17.91,0,0,0,5.83,1,20.63,20.63,0,0,0,6-1.24C61.09,63,62.18,62.49,63,63S63.45,65.75,60.11,67.09Z"/><path class="cls-3" d="M60.11,67.09a19,19,0,0,1-6.93,1.08A23.15,23.15,0,0,1,47,67.48a10.22,10.22,0,0,0,.55-3.63,17.91,17.91,0,0,0,5.83,1,20.63,20.63,0,0,0,6-1.24A10.14,10.14,0,0,0,60.11,67.09Z"/><path class="cls-6" d="M34.61,46.88s4-2.42,6.19-2.23a10.93,10.93,0,0,1,4.4,1.61s-1.92-3.9-5.14-3.78S34.61,46.88,34.61,46.88Z"/><path class="cls-6" d="M58.32,50.47s8,1.67,12.38-4.4c-3.1,2.11-7.49.93-9.47,2.11A11.88,11.88,0,0,0,58.32,50.47Z"/><path class="cls-6" d="M32.64,50.74S28.83,34.35,44.39,28.16C44.76,35.84,51.24,43,51.24,43a19.74,19.74,0,0,0,.7-8.58C55.08,41.62,60,44,60,44a14.14,14.14,0,0,0,.83-6.52c1.32,3.55,2.89,4.13,2.89,4.13s1.15-4.63-.17-8.09c10.73,4.95,11.26,17.61,11.26,17.61.21-.45,3.92-7.94-.86-18.11S48.15,20.55,38.57,28.16,31.08,46.91,32.64,50.74Z"/><path class="cls-17" d="M71.5,32.7c-.71-.77-6.25,4.27-6.25,5.33s1.86,2.66,2.48,2.47S72.25,33.51,71.5,32.7ZM68,38.27c-.44.06-1.18-.32-1.05-.87s2-2.41,2.47-2.1S68.47,38.21,68,38.27Z"/><path class="cls-18" d="M75.3,37.09c-.6-.86-6.77,3.39-6.91,4.44s1.48,2.88,2.12,2.78S75.93,38,75.3,37.09Zm-4.18,5.06c-.44,0-1.12-.48-.93-1S72.54,39,72.93,39.4,71.56,42.14,71.12,42.15Z"/></g></g></g></svg>