<svg xmlns="http://www.w3.org/2000/svg" xmlns:xlink="http://www.w3.org/1999/xlink" viewBox="0 0 100 100"><defs><style>.cls-1{fill:#fcf2eb;}.cls-2{isolation:isolate;}.cls-3{clip-path:url(#clip-path);}.cls-4{fill:url(#New_swatch_222);}.cls-5{fill:url(#New_swatch_326);}.cls-14,.cls-22,.cls-30,.cls-33,.cls-36,.cls-6,.cls-8{mix-blend-mode:multiply;}.cls-6{fill:url(#New_swatch_326-2);}.cls-7{fill:url(#New_swatch_222-2);}.cls-14,.cls-8{opacity:0.62;}.cls-8{fill:url(#New_swatch_222-3);}.cls-9{fill:url(#New_swatch_463);}.cls-10{fill:url(#New_swatch_463-2);}.cls-11{fill:url(#New_swatch_463-3);}.cls-12{fill:url(#New_swatch_463-4);}.cls-13{fill:url(#New_swatch_222-4);}.cls-14{fill:url(#New_swatch_222-5);}.cls-15{fill:url(#linear-gradient);}.cls-16{fill:url(#New_swatch_463-5);}.cls-17{fill:url(#New_swatch_234);}.cls-18{fill:url(#New_swatch_390);}.cls-19{fill:url(#New_swatch_394);}.cls-20{fill:url(#New_swatch_262);}.cls-21{fill:url(#New_swatch_241);}.cls-22{opacity:0.9;fill:url(#New_swatch_241-2);}.cls-23{fill:url(#New_swatch_241-3);}.cls-24{fill:url(#New_swatch_241-4);}.cls-25{fill:url(#linear-gradient-2);}.cls-26{fill:url(#New_swatch_262-2);}.cls-27{fill:#fff;}.cls-28{fill:url(#New_swatch_432);}.cls-29,.cls-32,.cls-40,.cls-42,.cls-51,.cls-52,.cls-53{mix-blend-mode:screen;}.cls-29{fill:url(#New_swatch_432-2);}.cls-30,.cls-33{opacity:0.68;}.cls-30{fill:url(#New_swatch_432-3);}.cls-31{fill:url(#New_swatch_432-4);}.cls-32{fill:url(#New_swatch_432-5);}.cls-33{fill:url(#New_swatch_432-6);}.cls-34{fill:url(#New_swatch_264);}.cls-35{fill:url(#New_swatch_241-5);}.cls-36{fill:url(#New_swatch_444);}.cls-37{fill:url(#New_swatch_262-3);}.cls-38{fill:url(#New_swatch_262-4);}.cls-39,.cls-40{fill:url(#New_swatch_394-2);}.cls-40{opacity:0.79;}.cls-41,.cls-42{fill:url(#New_swatch_394-4);}.cls-42{opacity:0.49;}.cls-43{fill:url(#New_swatch_394-6);}.cls-44{fill:url(#New_swatch_394-7);}.cls-45{fill:url(#New_swatch_394-8);}.cls-46{fill:url(#New_swatch_463-6);}.cls-47{fill:url(#New_swatch_463-7);}.cls-48{fill:url(#New_swatch_264-2);}.cls-49{fill:url(#New_swatch_262-5);}.cls-50{fill:url(#New_swatch_262-6);}.cls-51,.cls-52,.cls-53{opacity:0.58;}.cls-51{fill:url(#linear-gradient-3);}.cls-52{fill:url(#linear-gradient-4);}.cls-53{fill:url(#linear-gradient-5);}.cls-54{fill:url(#New_swatch_234-2);}.cls-55{fill:url(#New_swatch_234-3);}.cls-56{fill:url(#New_swatch_389);}.cls-57{fill:url(#New_swatch_389-2);}.cls-58{fill:url(#New_swatch_408);}</style><clipPath id="clip-path"><circle class="cls-1" cx="50" cy="50" r="44.54"/></clipPath><linearGradient id="New_swatch_222" x1="40.22" y1="64.08" x2="61.23" y2="64.08" gradientUnits="userSpaceOnUse"><stop offset="0" stop-color="#ed654d"/><stop offset="1" stop-color="#c5442d"/></linearGradient><linearGradient id="New_swatch_326" x1="48.14" y1="131.27" x2="48.14" y2="81.01" gradientUnits="userSpaceOnUse"><stop offset="0" stop-color="#91a5bf"/><stop offset="1" stop-color="#abc0d3"/></linearGradient><linearGradient id="New_swatch_326-2" x1="49.47" y1="68.04" x2="47.36" y2="95.78" xlink:href="#New_swatch_326"/><linearGradient id="New_swatch_222-2" x1="31.5" y1="32.34" x2="27.96" y2="94.58" xlink:href="#New_swatch_222"/><linearGradient id="New_swatch_222-3" x1="31.29" y1="85.18" x2="29.47" y2="70.39" xlink:href="#New_swatch_222"/><linearGradient id="New_swatch_463" x1="36.02" y1="76.64" x2="47.76" y2="95.51" gradientUnits="userSpaceOnUse"><stop offset="0" stop-color="#ff9763"/><stop offset="1" stop-color="#c5442d"/></linearGradient><linearGradient id="New_swatch_463-2" x1="35.88" y1="91.2" x2="43.66" y2="111.64" xlink:href="#New_swatch_463"/><linearGradient id="New_swatch_463-3" x1="28.75" y1="69.45" x2="67.15" y2="63.97" xlink:href="#New_swatch_463"/><linearGradient id="New_swatch_463-4" x1="24.08" y1="70.1" x2="43.3" y2="69.46" xlink:href="#New_swatch_463"/><linearGradient id="New_swatch_222-4" x1="72.22" y1="43.88" x2="74.88" y2="91.96" xlink:href="#New_swatch_222"/><linearGradient id="New_swatch_222-5" x1="67.55" y1="101.74" x2="62.86" y2="63.64" xlink:href="#New_swatch_222"/><linearGradient id="linear-gradient" x1="63.36" y1="87.02" x2="49.8" y2="101.44" xlink:href="#New_swatch_463"/><linearGradient id="New_swatch_463-5" x1="59.69" y1="76.27" x2="73.82" y2="92.97" xlink:href="#New_swatch_463"/><linearGradient id="New_swatch_234" x1="26.62" y1="42.13" x2="35.71" y2="42.13" gradientUnits="userSpaceOnUse"><stop offset="0" stop-color="#4ccadb"/><stop offset="1" stop-color="#3390c4"/></linearGradient><linearGradient id="New_swatch_390" x1="30.27" y1="42.22" x2="39.51" y2="42.22" gradientTransform="translate(75.42 5.39) rotate(87.31)" gradientUnits="userSpaceOnUse"><stop offset="0" stop-color="#0c5d81"/><stop offset="1" stop-color="#003d55"/></linearGradient><linearGradient id="New_swatch_394" x1="31.33" y1="30.88" x2="36.22" y2="30.88" gradientUnits="userSpaceOnUse"><stop offset="0" stop-color="#0c5d81"/><stop offset="1" stop-color="#002f40"/></linearGradient><linearGradient id="New_swatch_262" x1="32.1" y1="42.52" x2="34.42" y2="27.57" gradientUnits="userSpaceOnUse"><stop offset="0" stop-color="#de904d"/><stop offset="1" stop-color="#bf6c02"/></linearGradient><linearGradient id="New_swatch_241" x1="49.87" y1="74.4" x2="50.95" y2="55.42" gradientUnits="userSpaceOnUse"><stop offset="0" stop-color="#ffceaa"/><stop offset="1" stop-color="#f69e80"/></linearGradient><linearGradient id="New_swatch_241-2" x1="49.62" y1="66.98" x2="50.33" y2="54.64" xlink:href="#New_swatch_241"/><linearGradient id="New_swatch_241-3" x1="46.87" y1="29.56" x2="40.85" y2="127.3" xlink:href="#New_swatch_241"/><linearGradient id="New_swatch_241-4" x1="47.62" y1="43.46" x2="49.05" y2="33.52" xlink:href="#New_swatch_241"/><linearGradient id="linear-gradient-2" x1="36.35" y1="43.34" x2="37.17" y2="34.95" gradientUnits="userSpaceOnUse"><stop offset="0" stop-color="#ffceaa"/><stop offset="0.33" stop-color="#fecba7"/><stop offset="0.59" stop-color="#fdc19e"/><stop offset="0.82" stop-color="#f9b090"/><stop offset="1" stop-color="#f69e80"/></linearGradient><linearGradient id="New_swatch_262-2" x1="267.41" y1="-9.51" x2="270.73" y2="6.51" gradientTransform="matrix(1.11, -0.02, -0.02, 1, -239.42, 32.94)" xlink:href="#New_swatch_262"/><linearGradient id="New_swatch_432" x1="51.02" y1="40.35" x2="46.61" y2="39.57" gradientUnits="userSpaceOnUse"><stop offset="0" stop-color="#715675"/><stop offset="1" stop-color="#39263a"/></linearGradient><linearGradient id="New_swatch_432-2" x1="50.59" y1="40.83" x2="46.99" y2="40.2" xlink:href="#New_swatch_432"/><linearGradient id="New_swatch_432-3" x1="-3392.03" y1="-1004.91" x2="-3394.13" y2="-1005.28" gradientTransform="matrix(-0.96, 0.27, 0.27, 0.96, -2947.96, 1922.19)" xlink:href="#New_swatch_432"/><linearGradient id="New_swatch_432-4" x1="39.54" y1="40.47" x2="35.13" y2="39.69" xlink:href="#New_swatch_432"/><linearGradient id="New_swatch_432-5" x1="39.12" y1="40.92" x2="35.52" y2="40.28" xlink:href="#New_swatch_432"/><linearGradient id="New_swatch_432-6" x1="-3380.95" y1="-1007.92" x2="-3383.06" y2="-1008.29" gradientTransform="matrix(-0.96, 0.27, 0.27, 0.96, -2947.96, 1922.19)" xlink:href="#New_swatch_432"/><linearGradient id="New_swatch_264" x1="33" y1="39.33" x2="40.41" y2="39.33" gradientUnits="userSpaceOnUse"><stop offset="0" stop-color="#57311b"/><stop offset="1" stop-color="#0b0b0a"/></linearGradient><linearGradient id="New_swatch_241-5" x1="41.16" y1="35.4" x2="38.04" y2="48.13" xlink:href="#New_swatch_241"/><linearGradient id="New_swatch_444" x1="42.17" y1="44.99" x2="45.41" y2="53.59" gradientUnits="userSpaceOnUse"><stop offset="0" stop-color="#ffae76"/><stop offset="1" stop-color="#c0684a"/></linearGradient><linearGradient id="New_swatch_262-3" x1="231.07" y1="4.92" x2="224.14" y2="10.17" gradientTransform="matrix(1.1, -0.01, -0.01, 1, -199.67, 27.48)" xlink:href="#New_swatch_262"/><linearGradient id="New_swatch_262-4" x1="-116.03" y1="334.12" x2="-109.29" y2="334.12" gradientTransform="matrix(1.06, 0.14, -0.15, 0.99, 204.8, -280.99)" xlink:href="#New_swatch_262"/><linearGradient id="New_swatch_394-2" x1="57.2" y1="19.36" x2="49.8" y2="32.74" xlink:href="#New_swatch_394"/><linearGradient id="New_swatch_394-4" x1="62.68" y1="23.54" x2="55.18" y2="35.87" xlink:href="#New_swatch_394"/><linearGradient id="New_swatch_394-6" x1="53.42" y1="23.14" x2="65.6" y2="23.14" xlink:href="#New_swatch_394"/><linearGradient id="New_swatch_394-7" x1="65.39" y1="21.06" x2="61.23" y2="38.53" xlink:href="#New_swatch_394"/><linearGradient id="New_swatch_394-8" x1="52.75" y1="30.06" x2="61.9" y2="30.06" xlink:href="#New_swatch_394"/><linearGradient id="New_swatch_463-6" x1="74.04" y1="64.81" x2="50.01" y2="72.47" xlink:href="#New_swatch_463"/><linearGradient id="New_swatch_463-7" x1="68.83" y1="66.37" x2="47.25" y2="77.48" xlink:href="#New_swatch_463"/><linearGradient id="New_swatch_264-2" x1="44.92" y1="39.33" x2="52.59" y2="39.33" xlink:href="#New_swatch_264"/><linearGradient id="New_swatch_262-5" x1="36.2" y1="11.34" x2="36.28" y2="11.34" xlink:href="#New_swatch_262"/><linearGradient id="New_swatch_262-6" x1="43.2" y1="16.14" x2="44.37" y2="29.84" xlink:href="#New_swatch_262"/><linearGradient id="linear-gradient-3" x1="34.01" y1="19.15" x2="37.93" y2="26.87" gradientUnits="userSpaceOnUse"><stop offset="0" stop-color="#de904d"/><stop offset="1" stop-color="#bf6c02" stop-opacity="0.01"/></linearGradient><linearGradient id="linear-gradient-4" x1="38.51" y1="18.9" x2="44.72" y2="27.87" gradientUnits="userSpaceOnUse"><stop offset="0" stop-color="#de904d"/><stop offset="1" stop-color="#bf6c02" stop-opacity="0"/></linearGradient><linearGradient id="linear-gradient-5" x1="45.4" y1="19.85" x2="57.65" y2="25.6" xlink:href="#linear-gradient-4"/><linearGradient id="New_swatch_234-2" x1="54.96" y1="43.45" x2="66.11" y2="43.45" xlink:href="#New_swatch_234"/><linearGradient id="New_swatch_234-3" x1="58.78" y1="43.85" x2="69.04" y2="43.85" gradientTransform="translate(93.61 -27.73) rotate(78.08)" xlink:href="#New_swatch_234"/><linearGradient id="New_swatch_389" x1="78.09" y1="43.95" x2="60.62" y2="43.95" gradientTransform="translate(94.09 -28.12) rotate(78.08)" gradientUnits="userSpaceOnUse"><stop offset="0" stop-color="#878acc"/><stop offset="1" stop-color="#484789"/></linearGradient><linearGradient id="New_swatch_389-2" x1="-107.51" y1="6.25" x2="-128.92" y2="9.44" gradientTransform="matrix(0.21, 0.92, -0.98, 0.19, 94.58, 145.24)" xlink:href="#New_swatch_389"/><linearGradient id="New_swatch_408" x1="-109.92" y1="3.58" x2="-117.2" y2="23.54" gradientTransform="matrix(0.21, 0.92, -0.98, 0.19, 94.82, 144.95)" gradientUnits="userSpaceOnUse"><stop offset="0" stop-color="#a7d5f8"/><stop offset="1" stop-color="#41a1e0"/></linearGradient></defs><title>Artboard 1icon</title><g class="cls-2"><g id="Layer_1" data-name="Layer 1"><circle class="cls-1" cx="50" cy="50" r="44.54"/><g class="cls-3"><path class="cls-4" d="M61.23,60.13c-7.29-2-14.82,0-21,4.33,4.26.21,7.73,3.74,12,4.3S60.43,65.54,61.23,60.13Z"/><path class="cls-5" d="M63,102.69c-.62,1.7-2.47,2.61-4.2,3.14-7.3,2.23-15.19.79-22.56-1.19a4.33,4.33,0,0,1-2.36-1.21,4.23,4.23,0,0,1-.71-2.35A54.7,54.7,0,0,1,42.89,65l.43-.6.38.24c4.66,2.76,10.71,2.54,16.51,1.22L60.75,72l2.46,27.81A6.67,6.67,0,0,1,63,102.69Z"/><path class="cls-6" d="M60.75,72a18.3,18.3,0,0,1-8.64,5.36,18.66,18.66,0,0,1-14.74-2.41,54.34,54.34,0,0,1,5.52-10c.27-.12.54-.25.81-.36,4.66,2.76,10.71,2.54,16.51,1.22Z"/><path class="cls-7" d="M43.64,64A64.64,64.64,0,0,0,38.1,77.26a68.14,68.14,0,0,0-1.7,7.29,73.29,73.29,0,0,0-.82,19,2.5,2.5,0,0,1-.24,1.67,1.68,1.68,0,0,1-2,.4,4.86,4.86,0,0,1-1.66-1.4L14.58,84.61a100.07,100.07,0,0,1,8-7.3A99.79,99.79,0,0,1,43.64,64Z"/><path class="cls-8" d="M38.1,77.26a68.14,68.14,0,0,0-1.7,7.29c-.12-.29-.24-.58-.35-.88l-3.67-2.25c0-1.76,0-3.52,0-5.28l-9.88,1.17A98.23,98.23,0,0,1,32.67,70a3.65,3.65,0,0,1,1.74.06c1.26.43,1.9,1.81,2.36,3.06A43.34,43.34,0,0,1,38.1,77.26Z"/><path class="cls-9" d="M33,72.88l1,7,.13-.53a6.37,6.37,0,0,1,2.38,3.24,18.79,18.79,0,0,1,.8,4l.83-14.45A29.25,29.25,0,0,1,33,72.88Z"/><path class="cls-10" d="M39,76.26a122.76,122.76,0,0,0-2.08,34.53,12.55,12.55,0,0,0-3.08-2.08,185.91,185.91,0,0,1,3-35.48A7.62,7.62,0,0,1,39,76.26Z"/><path class="cls-11" d="M43.67,61.77a148.39,148.39,0,0,0-10,12.52l-8.86.3A154.38,154.38,0,0,1,43.67,61.77Z"/><path class="cls-12" d="M33.36,74a13.37,13.37,0,0,0,5.53,2.38C40,71.69,42.37,67.22,44,62.64A33.75,33.75,0,0,0,33.36,74Z"/><path class="cls-13" d="M61.44,62.64c-8.51,13.77-4.08,31.36.36,44.53a139.39,139.39,0,0,0,30.28-25C83.44,71.42,62.84,62.46,61.44,62.64Z"/><path class="cls-14" d="M60.77,102.58A77.45,77.45,0,0,1,59,80a25.22,25.22,0,0,0,4.93-1.68s.36-2,.58-3.34l9,0a78.74,78.74,0,0,0-7.4-11.67,108.77,108.77,0,0,1-4.15,10.34l-6.31,6.5c1.19,3.92,1.22,8.07,1.6,12.14S58.41,100.51,60.77,102.58Z"/><path class="cls-15" d="M55.26,79.08a130.91,130.91,0,0,0,4.53,30.42,2.34,2.34,0,0,1,3-1.75,103.81,103.81,0,0,1-5.27-34.53C56.5,75.37,55.21,77.49,55.26,79.08Z"/><path class="cls-16" d="M55.42,83.31a8.36,8.36,0,0,1,7.18-5.93l-.41-.14A52.11,52.11,0,0,1,64.56,70a3.06,3.06,0,0,1-3.18-1.31l-5,7.81C56.18,78.38,55.94,80.31,55.42,83.31Z"/><path class="cls-17" d="M35.71,34.38l-.2,4.24-.34,7.23L35,50.09l-4-.19h-.23l-.35,0c-2.31-.5-4-3.94-3.78-8s2.17-7.34,4.52-7.62v0Z"/><ellipse class="cls-18" cx="34.89" cy="42.22" rx="7.86" ry="4.61" transform="translate(-8.92 75.09) rotate(-87.31)"/><path class="cls-19" d="M32,22.55a62.38,62.38,0,0,0-.26,16.66,3.46,3.46,0,0,1,2.58-.55,43,43,0,0,1,1.87-15C34.38,23.81,32.52,23.6,32,22.55Z"/><path class="cls-20" d="M33.13,24.46a63.82,63.82,0,0,0-.61,16.79c.8-5,1.62-10,3.81-14.51A13.05,13.05,0,0,1,33.13,24.46Z"/><path class="cls-21" d="M60.56,67.15c-2.1,8.09-14.7,9.07-20.91,6.33a65.66,65.66,0,0,0,1.91-12.59A44.21,44.21,0,0,0,41,51,87.49,87.49,0,0,0,59.75,38.6c0,2.65,0,5.31,0,8Q59.86,56.86,60.56,67.15Z"/><path class="cls-22" d="M59.75,51.88c-.2,1.14-.43,2.27-.7,3.4a18.43,18.43,0,0,1-3.67,8.07,11.94,11.94,0,0,1-8.92,3.86,15.09,15.09,0,0,1-5.28-1A43.94,43.94,0,0,0,41,56.29,87.12,87.12,0,0,0,59.75,43.92C59.72,46.57,59.72,49.23,59.75,51.88Z"/><path class="cls-23" d="M34.53,22.36,32.37,34.6a.86.86,0,0,1,.28-.45,41.81,41.81,0,0,0-.53,6.42,0,0,0,0,0,0-.06c-.51,3.88-.91,5.37-.21,10.48.38,2.78,2.91,10.19,7.37,11.95a14.29,14.29,0,0,0,11.07-.71c5.34-2.95,7.74-7.65,9.58-13.64.41-6.12.78-11.09,1.18-17.21a7.06,7.06,0,0,0-.3-3.3,6.35,6.35,0,0,0-3.55-2.9C50.83,22.39,43.68,22,34.53,22.36Z"/><path class="cls-24" d="M43.9,42a30.65,30.65,0,0,1,.17-6.63A2.29,2.29,0,0,1,44.55,34a2.25,2.25,0,0,1,1.36-.53,11.2,11.2,0,0,1,5.31.19,2.21,2.21,0,0,1,1.09.72,2.47,2.47,0,0,1,.33,1.16,21.2,21.2,0,0,1,0,6.11A10.91,10.91,0,0,0,43.9,42Z"/><path class="cls-25" d="M32.78,41.59A9.63,9.63,0,0,1,33.6,35a18.71,18.71,0,0,1,5.54.17,1.8,1.8,0,0,1,.86.33,1.83,1.83,0,0,1,.49,1A15.47,15.47,0,0,1,40.91,39,3,3,0,0,1,40.62,41a2.58,2.58,0,0,1-2.3,1c-.87,0-1.73-.26-2.6-.26Z"/><path class="cls-26" d="M55.6,25.49l-.5,6.65c2.29.79,1.09,4.55,1.19,14.45,1.78-.91,4.27-4.16,6.26-4.56a120.3,120.3,0,0,1,6-15.6A20.54,20.54,0,0,0,62.14,24,8.12,8.12,0,0,0,55.6,25.49Z"/><path class="cls-27" d="M52.61,41.63c-.73,0-1.47,0-2.21,0l-.55,0-2,.09-.56,0c-1.07.06-2.21.12-3.42.17a8,8,0,0,1,1.36-3.42,6,6,0,0,1,4.65-.5A3.9,3.9,0,0,1,52.61,41.63Z"/><path class="cls-28" d="M50.4,41.67l-.55,0-2,.09-.56,0a2.14,2.14,0,0,1-.68-1.08,2.23,2.23,0,1,1,3.76,1Z"/><path class="cls-29" d="M49.85,41.69l-2,.09A1.94,1.94,0,0,1,47,40.63a.43.43,0,0,1,0-.11c.15-.07.3-.15.46-.21a1.32,1.32,0,0,0,2.53-.72.19.19,0,0,1,0-.07h0l.36-.07.29,0a1.59,1.59,0,0,1,.07.2A1.91,1.91,0,0,1,49.85,41.69Z"/><circle class="cls-30" cx="48.73" cy="39.88" r="1.07"/><circle class="cls-27" cx="49.98" cy="38.99" r="0.54" transform="translate(-8.66 14.91) rotate(-15.64)"/><path class="cls-27" d="M40.33,41.56,39,41.73l-.5.06h-.1c-.64.05-1.3.07-2,.06h-.59a24.6,24.6,0,0,1-3.4-.33,4.75,4.75,0,0,1,1.07-3.31,12.75,12.75,0,0,1,2.82-.3A4.8,4.8,0,0,1,37,38a4,4,0,0,1,1.46.56,3.9,3.9,0,0,1,.4.31L39,39a5.08,5.08,0,0,1,.41.51A8.08,8.08,0,0,1,40.33,41.56Z"/><path class="cls-31" d="M39,41.73l-.5.06h-.1c-.64.05-1.3.07-2,.06h-.59a2.19,2.19,0,0,1-.63-1,2.24,2.24,0,0,1,1.55-2.76A1.8,1.8,0,0,1,37,38a4,4,0,0,1,1.46.56.53.53,0,0,1,.52.39L39,39a5.08,5.08,0,0,1,.41.51l0,.1A2.24,2.24,0,0,1,39,41.73Z"/><path class="cls-32" d="M38.35,41.79c-.64.05-1.3.07-2,.06a1.85,1.85,0,0,1-.89-1.13l0-.11.47-.22a1.31,1.31,0,0,0,2.52-.71.64.64,0,0,0,0-.07h0l.35-.07.29,0a1.59,1.59,0,0,1,.07.2A1.89,1.89,0,0,1,38.35,41.79Z"/><circle class="cls-33" cx="37.25" cy="39.97" r="1.07"/><path class="cls-27" d="M38.69,39.72l-.14.07a.55.55,0,0,1-.22,0,.53.53,0,0,1-.44-.38.06.06,0,0,1,0,0,.53.53,0,0,1,.38-.62l.13,0a.55.55,0,0,1,.53.39s0,0,0,0A.52.52,0,0,1,38.69,39.72Z"/><path class="cls-34" d="M40.41,41.56a6.18,6.18,0,0,0-3.17-3.12,5.63,5.63,0,0,0-4.24.32c.17-.51.34-1,.53-1.48a5.56,5.56,0,0,1,6.88,4.28Z"/><path class="cls-35" d="M40.6,35.1a9,9,0,0,1-3.15,8.71,4.43,4.43,0,0,0-1.35,1.34,1.34,1.34,0,0,0-.16.68c0,.76.68,1.09,1.3,1.28a3.48,3.48,0,0,0,3-.23,4.09,4.09,0,0,0,1.31-2.27,17.29,17.29,0,0,0,.76-5.44,9.63,9.63,0,0,1,0-1.2c.14-1.43.18-2.72,1.23-3.7A7.05,7.05,0,0,0,40.6,35.1Z"/><path class="cls-36" d="M37.84,50.59A31.93,31.93,0,0,0,49.4,47.08,19,19,0,0,1,37.84,50.59Z"/><path class="cls-37" d="M43.86,34.85l.45-3.18.25.47.71-.58-.38,2.29.66-2.23a1.93,1.93,0,0,0,1.51.18,12.19,12.19,0,0,1,5.41.48,8.54,8.54,0,0,0,.33,2.78A3.84,3.84,0,0,0,50.88,34C50.28,33.84,44.93,34.16,43.86,34.85Z"/><path class="cls-38" d="M40.27,36.33l-.53-3.22a.76.76,0,0,1-1.05.18l.11,1.55-.36-1.41-.08.21a15.14,15.14,0,0,0-4.75-.06,3.24,3.24,0,0,0-.26,2.51l0-.65A28.62,28.62,0,0,1,40.27,36.33Z"/><path class="cls-39" d="M65.17,23.27a26.92,26.92,0,0,0-16.84-6.19c2.07.77,2.63,3.56,4.49,4.76A7.21,7.21,0,0,0,56,22.7c2.26.23,4.53.47,6.51.82A15.3,15.3,0,0,1,65.17,23.27Z"/><path class="cls-40" d="M65.17,23.27a26.92,26.92,0,0,0-16.84-6.19c2.07.77,2.63,3.56,4.49,4.76A7.21,7.21,0,0,0,56,22.7c2.26.23,4.53.47,6.51.82A15.3,15.3,0,0,1,65.17,23.27Z"/><path class="cls-41" d="M61.25,22.59a12.19,12.19,0,0,1,6.36,3.31,13.43,13.43,0,0,1-11.37-2.23A32.53,32.53,0,0,0,61.25,22.59Z"/><path class="cls-42" d="M61.25,22.59a12.19,12.19,0,0,1,6.36,3.31,13.43,13.43,0,0,1-11.37-2.23A32.53,32.53,0,0,0,61.25,22.59Z"/><path class="cls-43" d="M53.42,22.47a22.16,22.16,0,0,1,11.75.8,1.52,1.52,0,0,0,.43,1,18.92,18.92,0,0,0-7.18-.61,6.8,6.8,0,0,1-2.06.05C55.35,23.49,54.55,22.74,53.42,22.47Z"/><path class="cls-44" d="M61.08,25.26a18.07,18.07,0,0,0,6.46.66,116,116,0,0,1-4.8,11.93l-2.52-.09A25.87,25.87,0,0,0,61.08,25.26Z"/><path class="cls-45" d="M52.78,22a50,50,0,0,1,9.08,3.52,41.6,41.6,0,0,1-1.41,12.61.89.89,0,0,0-1.1-.61,28.1,28.1,0,0,0,.86-11A19.54,19.54,0,0,0,55,25.19a3.27,3.27,0,0,1-1.64-.47C52.85,24.36,52.67,23.58,52.78,22Z"/><path class="cls-46" d="M61.14,60.13,54.86,79.72a62.55,62.55,0,0,1,6.08-7.49A118.67,118.67,0,0,0,61.14,60.13Z"/><path class="cls-47" d="M60.75,72.25c4.33.94,7.52,1.38,11.86,2.33-2.94-2.77-5.84-11.29-5.84-11.29a27.37,27.37,0,0,0-5.54-3.16A49.28,49.28,0,0,0,60.75,72.25Z"/><path class="cls-48" d="M52.59,41.56c-.35-1.13-.68-3-3.7-3.43a6.79,6.79,0,0,0-2.11,0,3.1,3.1,0,0,0-1.86.91l.76-1.71a6.75,6.75,0,0,1,4.48.36A4.36,4.36,0,0,1,52.59,41.56Z"/><path class="cls-49" d="M36.28,11.29l-.08.15a1.49,1.49,0,0,1,0-.21Z"/><path class="cls-50" d="M58.84,26.39c-.64,0-1.58.17-2.71.35l-3.52.57c-1.23.21-2.53.42-3.82.62h0l-1.72.26a42.92,42.92,0,0,1-5.31.47h-1a20.31,20.31,0,0,1-6.53-1.12h0l-.69-.28a7.44,7.44,0,0,1-4.22-3.71c-1.26-3.05,1.17-9.23,3.6-12.86l1.89,1.56.72.59,1.21,1,.26.21a4.37,4.37,0,0,1-.25-.4,4.18,4.18,0,0,1-.5-2.21h0a1.49,1.49,0,0,1,0-.21l.06.06a4.82,4.82,0,0,0,.47.37l.43.27a21.59,21.59,0,0,0,4.38,1.76l3,2.36,1.51,1.19S46,16.66,45.93,16c0-.41-.08-.84-.11-1.14C48.61,16,51.4,17.07,54.25,18,56.42,18.68,58.1,21,58.84,26.39Z"/><path class="cls-51" d="M40.71,28.66a20.31,20.31,0,0,1-6.53-1.12h0a9.37,9.37,0,0,1-2-2.75,10.71,10.71,0,0,1,.24-8.45,21.39,21.39,0,0,1,2.31-4.09l.72.59a15.53,15.53,0,0,0-2,5.47,9.47,9.47,0,0,0,2.14,6.82A11.87,11.87,0,0,0,40.71,28.66Z"/><path class="cls-52" d="M48.79,27.93l-1.72.26a42.92,42.92,0,0,1-5.31.47,10.92,10.92,0,0,1-1.52-1.52,16.08,16.08,0,0,1-3.25-8,33.39,33.39,0,0,1-.3-5.29l.26.21a4.37,4.37,0,0,1-.25-.4c0-.67,0-1.33,0-2l.43.27a50.6,50.6,0,0,0,3.41,9.44,13.4,13.4,0,0,0,1.71,2.84A12.47,12.47,0,0,0,48.79,27.93Z"/><path class="cls-53" d="M56.13,26.74l-3.52.57a26.23,26.23,0,0,1-8.06-11.26l1.51,1.19S46,16.66,45.93,16C49.16,20.26,53.13,23.12,56.13,26.74Z"/><path class="cls-54" d="M66.11,35.73l-.93,4.44-1.6,7.57-.94,4.44-4.15-.88h0l-.24,0-.36-.12c-2.35-.92-3.52-4.83-2.62-9.1s3.55-7.37,6.08-7.26v-.05Z"/><ellipse class="cls-55" cx="63.91" cy="43.85" rx="8.4" ry="4.93" transform="translate(7.8 97.32) rotate(-78.08)"/><ellipse class="cls-56" cx="64.38" cy="43.95" rx="7.15" ry="4.2" transform="translate(8.07 97.86) rotate(-78.08)"/><ellipse class="cls-57" cx="64.88" cy="44.06" rx="7.15" ry="3.94" transform="translate(8.36 98.43) rotate(-78.08)"/><ellipse class="cls-58" cx="65.17" cy="44.06" rx="2.52" ry="1.39" transform="translate(8.6 98.72) rotate(-78.08)"/></g></g></g></svg>