<svg xmlns="http://www.w3.org/2000/svg" xmlns:xlink="http://www.w3.org/1999/xlink" viewBox="0 0 100 100"><defs><style>.cls-1{fill:none;}.cls-2{fill:#884735;}.cls-3{fill:#fff;}.cls-4{isolation:isolate;}.cls-5{fill:#53ea80;}.cls-6{clip-path:url(#clip-path);}.cls-7{fill:#2d1b18;}.cls-8{fill:#f84943;}.cls-9{fill:#6c3224;}.cls-10{fill:#4f1f15;}.cls-11{fill:#3a120c;}.cls-12{clip-path:url(#clip-path-2);}.cls-13,.cls-14{opacity:0.3;mix-blend-mode:darken;}.cls-13{fill:url(#radial-gradient);}.cls-14{fill:url(#radial-gradient-2);}.cls-15{clip-path:url(#clip-path-3);}.cls-16{fill:#c89255;}.cls-17{clip-path:url(#clip-path-4);}.cls-18{fill:#e94f4b;}.cls-19{fill:#ff706c;}</style><clipPath id="clip-path"><path class="cls-1" d="M89.93,2.37H11.33V45.73h.57a39.93,39.93,0,1,0,76.2,0h1.83Z"/></clipPath><clipPath id="clip-path-2"><path class="cls-2" d="M51.13,28.87c-24.27,0-23,20.18-21.17,26.37s1.11,7.8.87,10.15-.25,4.36,3.34,7.18c3.31,2.6,10.21,5.9,16.83,5.9a30.11,30.11,0,0,0,16.84-5.9c3.59-2.82,3.59-4.83,3.34-7.18s-1-4,.87-10.15S74.9,28.87,51.13,28.87Z"/></clipPath><radialGradient id="radial-gradient" cx="66.36" cy="64.03" r="11.88" gradientTransform="translate(29.81 -20.63) rotate(22.67)" gradientUnits="userSpaceOnUse"><stop offset="0" stop-color="#be0809"/><stop offset="0.13" stop-color="#bf0c0d"/><stop offset="0.26" stop-color="#c21718"/><stop offset="0.39" stop-color="#c72b2c"/><stop offset="0.51" stop-color="#ce4647"/><stop offset="0.64" stop-color="#d8696a"/><stop offset="0.76" stop-color="#e39494"/><stop offset="0.88" stop-color="#f0c6c6"/><stop offset="1" stop-color="#fff"/></radialGradient><radialGradient id="radial-gradient-2" cx="34.17" cy="64.03" r="11.88" gradientTransform="translate(49.14 -6.99) rotate(39.99)" xlink:href="#radial-gradient"/><clipPath id="clip-path-3"><path class="cls-3" d="M45,61.16a11.77,11.77,0,0,0-2.64-.33,15,15,0,0,0-5.69,1.09c-.73-.84-1.53-3.73-.66-6.61,1.71-1.91,5.51-2.2,7.34-.5l0,0C44.9,56.27,45,60,45,61.16Z"/></clipPath><clipPath id="clip-path-4"><path class="cls-3" d="M57.08,61.16a11.7,11.7,0,0,1,2.64-.33,15,15,0,0,1,5.69,1.09c.73-.84,1.53-3.73.66-6.61-1.71-1.91-5.52-2.2-7.34-.5l0,0C57.19,56.27,57.07,60,57.08,61.16Z"/></clipPath></defs><title>Artboard 1icon 3</title><g class="cls-4"><g id="Layer_1" data-name="Layer 1"><circle class="cls-5" cx="50" cy="57.71" r="39.93"/><g class="cls-6"><path class="cls-7" d="M34,70.35s-2.48,2.6-5.2,1a3.21,3.21,0,0,1-1.61-4.08A2.84,2.84,0,0,1,23.55,66c-1.24-2.23,1.11-5.32,1.11-5.32s-3.34,2.6-5.2.37a5.38,5.38,0,0,1-1-4.83s-4.7-1.36-4.45-5.32,4.45-5,4.45-5-7.62-4.47-5.27-10.78,7.15-5.27,7.15-5.27-2.72-2.37,0-6.33S28,23.31,28,23.31,23.67,13.28,33,8.7s15,3.47,15,3.47A6.33,6.33,0,0,1,55.24,7c6.44.62,5.94,5.69,5.94,5.69S65.89,4.86,73.44,9s4.09,11,4.09,11a6.72,6.72,0,0,1,7,5.07c1.74,5.7-2.35,8.42-2.35,8.42s3.34.5,3.59,3.71A4.17,4.17,0,0,1,83,41.38s5.57,1.61,4.34,8.17-8.55,6.32-8.55,6.32-2.1,1.86-1.73,1.86,6.07,4.33,3.72,8.17A3.67,3.67,0,0,1,75.05,67s.5,4-3.22,4.58-5.94-3.22-5.94-3.22Z"/><path class="cls-8" d="M65.9,83.59c-2.26-3.22-6.43-1.12-11.51-2.11a11,11,0,0,0-2.81,0,11,11,0,0,0-2.8,0c-5.08,1-9.26-1.11-11.52,2.11-2.62,3.74-4.59,11.94-4.08,11.76l18.4,9.25L70,95.35C70.5,95.53,68.53,87.33,65.9,83.59Z"/><path class="cls-9" d="M46.05,76.74A6,6,0,0,1,46,82.1c0,4.07,10.57,4.07,10.57,0a6.42,6.42,0,0,1,0-5.36C56.54,73.33,46.05,73.33,46.05,76.74Z"/><path class="cls-9" d="M69.49,60c.42-4.7,6.52-8.25,8.67-7.59a5,5,0,0,1,3.71,4.71c0,3.63-4.12,8.66-6.85,9S69.08,64.68,69.49,60Z"/><path class="cls-10" d="M80.94,58.54C80,62.23,76.8,64,75.45,64a1.83,1.83,0,0,1-1.61-1.42,1.49,1.49,0,0,1,.08-1.28,2.92,2.92,0,0,0,.81-1.89c0-.72-1.89-1.44-1-2.88a1,1,0,0,1,.11-.17,7.11,7.11,0,0,1,4.93-2.27C80.13,54.22,81.5,56.45,80.94,58.54Z"/><path class="cls-11" d="M73.84,62.61a1.49,1.49,0,0,1,.08-1.28,2.92,2.92,0,0,0,.81-1.89c0-.72-1.89-1.44-1-2.88a1,1,0,0,1,.11-.17c1.24-.43,3.05-.69,3.73,1C78.52,59.8,76.07,62.67,73.84,62.61Z"/><path class="cls-9" d="M32.73,60c-.41-4.7-6.52-8.25-8.67-7.59a5,5,0,0,0-3.71,4.71c0,3.63,4.13,8.66,6.85,9S33.14,64.68,32.73,60Z"/><path class="cls-10" d="M21.28,58.54c1,3.69,4.15,5.49,5.49,5.49a1.83,1.83,0,0,0,1.61-1.42,1.46,1.46,0,0,0-.07-1.28,2.87,2.87,0,0,1-.81-1.89c0-.72,1.89-1.44,1-2.88l-.12-.17a7.11,7.11,0,0,0-4.93-2.27C22.09,54.22,20.72,56.45,21.28,58.54Z"/><path class="cls-11" d="M28.38,62.61a1.46,1.46,0,0,0-.07-1.28,2.87,2.87,0,0,1-.81-1.89c0-.72,1.89-1.44,1-2.88l-.12-.17c-1.23-.43-3.05-.69-3.73,1C23.71,59.8,26.15,62.67,28.38,62.61Z"/><path class="cls-2" d="M51.13,28.87c-24.27,0-23,20.18-21.17,26.37s1.11,7.8.87,10.15-.25,4.36,3.34,7.18c3.31,2.6,10.21,5.9,16.83,5.9a30.11,30.11,0,0,0,16.84-5.9c3.59-2.82,3.59-4.83,3.34-7.18s-1-4,.87-10.15S74.9,28.87,51.13,28.87Z"/><g class="cls-12"><circle class="cls-13" cx="66.36" cy="64.03" r="11.88" transform="translate(-19.55 30.53) rotate(-22.67)"/><circle class="cls-14" cx="34.17" cy="64.03" r="11.88" transform="translate(-33.16 36.93) rotate(-39.99)"/></g><path class="cls-7" d="M32.93,50.49A9.2,9.2,0,0,1,40.36,47c3.22,0,3.63-1,3.71-1.61s-.79-.92-3.79-.92C36.48,44.44,34.25,47.12,32.93,50.49Z"/><path class="cls-10" d="M48.69,63a4.71,4.71,0,0,1,1-1.05,2,2,0,0,1,2.37,0,3.93,3.93,0,0,1,.89,1A8.14,8.14,0,0,1,48.69,63Z"/><path class="cls-7" d="M69.7,50.49A9.2,9.2,0,0,0,62.28,47c-3.22,0-3.63-1-3.72-1.61s.79-.92,3.8-.92C66.16,44.44,68.38,47.12,69.7,50.49Z"/><path class="cls-7" d="M43.38,54.68l0,.13-1,6a15,15,0,0,0-5.69,1.09l.11.11L36.6,62l-.2-.11c-2.48-1.34-2.2-7-1.72-7.88s2.3-1.62,3.83-1.62A6.08,6.08,0,0,1,43.38,54.68Z"/><path class="cls-3" d="M45,61.16a11.77,11.77,0,0,0-2.64-.33,15,15,0,0,0-5.69,1.09c-.73-.84-1.53-3.73-.66-6.61,1.71-1.91,5.51-2.2,7.34-.5l0,0C44.9,56.27,45,60,45,61.16Z"/><g class="cls-15"><path class="cls-16" d="M47.3,60a4.88,4.88,0,1,1-4.87-4.87A4.87,4.87,0,0,1,47.3,60Z"/><path class="cls-7" d="M45.91,60a3.49,3.49,0,1,1-3.48-3.48A3.48,3.48,0,0,1,45.91,60Z"/><path class="cls-3" d="M40.4,57.23c.41.41.58.91.37,1.11s-.7,0-1.1-.37-.58-.9-.37-1.11S40,56.83,40.4,57.23Z"/></g><path class="cls-7" d="M58.71,54.68l0,.13,1,6a15,15,0,0,1,5.69,1.09l-.12.11.19-.08.21-.11c2.48-1.34,2.2-7,1.72-7.88s-2.3-1.62-3.83-1.62A6.08,6.08,0,0,0,58.71,54.68Z"/><path class="cls-3" d="M57.08,61.16a11.7,11.7,0,0,1,2.64-.33,15,15,0,0,1,5.69,1.09c.73-.84,1.53-3.73.66-6.61-1.71-1.91-5.52-2.2-7.34-.5l0,0C57.19,56.27,57.07,60,57.08,61.16Z"/><g class="cls-17"><path class="cls-16" d="M54.79,60a4.88,4.88,0,1,0,4.87-4.87A4.87,4.87,0,0,0,54.79,60Z"/><path class="cls-7" d="M56.18,60a3.49,3.49,0,1,0,3.48-3.48A3.48,3.48,0,0,0,56.18,60Z"/><path class="cls-3" d="M61.68,57.23c-.4.41-.57.91-.37,1.11s.7,0,1.11-.37.58-.9.37-1.11S62.09,56.83,61.68,57.23Z"/></g><path class="cls-18" d="M57.66,73.27a18.32,18.32,0,0,1-6.21,1,19.71,19.71,0,0,1-7.06-1.18c-5.18-2-6.91-6-4.5-8.39,2.15-2.15,4.22-1,7-.08a12.29,12.29,0,0,0,3.69.69h.63l.44,0a18.19,18.19,0,0,0,3.26-.62c3.23-.91,5.1-2.17,7.72-.13S63.36,71.22,57.66,73.27Z"/><path class="cls-19" d="M57.66,73.27a18.32,18.32,0,0,1-6.21,1,19.71,19.71,0,0,1-7.06-1.18c.75-1,2.39-2.81,3.55-2.68,1.55.19,2.54,1.55,3.22,1.43s2-1.49,3.09-1.49C55.17,70.35,56.85,72.13,57.66,73.27Z"/><path class="cls-3" d="M50.54,65.31a7.15,7.15,0,0,1-.68,2.47.94.94,0,0,1-.85.5,3.83,3.83,0,0,1-1.71-.46,1,1,0,0,1-.48-.69,8.46,8.46,0,0,1,0-2.51A12.29,12.29,0,0,0,50.54,65.31Z"/><path class="cls-3" d="M54.89,67.13a.92.92,0,0,1-.47.69,3.83,3.83,0,0,1-1.71.46.93.93,0,0,1-.85-.5,7,7,0,0,1-.69-2.47l.44,0a18.19,18.19,0,0,0,3.26-.62A8.19,8.19,0,0,1,54.89,67.13Z"/><path class="cls-7" d="M34.77,32.92A2.17,2.17,0,0,0,37,35.4c2.48,0,3.39-2.81,3.39-2.81a4.5,4.5,0,0,0,5.36,3c4.13-.91,3.88-4.21,3.88-4.21A4,4,0,0,0,53,33.75,4.33,4.33,0,0,0,56.81,32s-.58,4.21,3,4.95A4.86,4.86,0,0,0,65,34.49s-.82,2.64,1.4,3,3.14-2.31,3.14-2.31A21.81,21.81,0,0,0,51,27C38.65,27.72,34.77,32.92,34.77,32.92Z"/></g></g></g></svg>